<svg width="193" height="63" viewBox="0 0 193 63" fill="none" xmlns="http://www.w3.org/2000/svg">
<path d="M63.0842 29.264C55.2114 39.9992 41.196 47.9541 25.928 47.9541C17.2535 47.9541 9.14687 45.5765 2.22266 41.4489C11.6052 47.9442 23.0187 51.768 35.3373 51.768C54.0858 51.768 74.8016 42.7928 81.305 29.264C85.2631 21.0352 81.2048 16.3263 74.7983 17.4986C69.317 18.5024 66.0904 25.1661 63.0842 29.264Z" fill="url(#paint0_linear_5724_2840)"/>
<path d="M18.9422 36.6208C22.6131 40.7319 28.2713 44.0704 34.5008 44.0704C38.0414 44.0704 41.3448 43.0996 44.1706 41.4188C40.3428 44.0671 35.6198 45.9031 30.4959 46.2432C23.7086 46.6923 15.9527 45.4903 11.3132 40.2696C8.4039 36.9939 9.92369 33.3451 13.4776 33.3451C15.4484 33.3451 17.1686 34.6362 18.9389 36.6208H18.9422Z" fill="#C6C6C5"/>
<path d="M100.003 47.4155H92.6348V46.5041H95.2702V44.5724H96.3992V46.5041H100.003V47.4155ZM99.265 41.7292V41.8613C99.265 42.2741 99.2584 42.6472 99.245 42.9775C99.2316 43.311 99.1982 43.694 99.1448 44.1266C99.0914 44.5625 99.0112 45.0347 98.901 45.5465L97.792 45.4309C97.9089 44.9026 97.9958 44.3577 98.0592 43.7997L93.373 44.0638L93.2126 43.1062L98.126 42.9477C98.1394 42.7034 98.1528 42.3567 98.1561 41.9109H93.4765V41.016H99.265V41.7259V41.7292Z" fill="#8B8C8E"/>
<path d="M104.626 44.0969H101.964V45.5631C102.599 45.5631 103.19 45.5399 103.738 45.497C104.286 45.4574 104.85 45.3913 105.428 45.2989L105.525 46.2037C104.897 46.3126 104.272 46.3853 103.651 46.4249C103.03 46.4645 102.318 46.4843 101.52 46.4843H100.792V43.2119H103.474V41.9208H100.785V41.016H104.63V44.0969H104.626ZM107.132 48.3533H106.003V40.349H107.132V48.3533Z" fill="#8B8C8E"/>
<path d="M111.243 41.2604C111.567 41.4915 111.817 41.8251 112.001 42.2543C112.185 42.6836 112.275 43.1855 112.278 43.7568C112.278 44.3314 112.182 44.8333 112.001 45.2659C111.821 45.6984 111.567 46.0287 111.246 46.2631C110.926 46.4976 110.558 46.6131 110.147 46.6131C109.736 46.6131 109.369 46.4976 109.045 46.2631C108.721 46.032 108.467 45.6984 108.287 45.2659C108.106 44.8333 108.016 44.3314 108.02 43.7568C108.02 43.1888 108.106 42.6902 108.287 42.2609C108.471 41.8317 108.721 41.4981 109.045 41.2637C109.369 41.0292 109.736 40.9137 110.147 40.9137C110.558 40.9137 110.922 41.0292 111.243 41.2637V41.2604ZM109.6 42.1322C109.443 42.2741 109.322 42.4822 109.235 42.7563C109.149 43.0303 109.105 43.3638 109.105 43.7535C109.105 44.1431 109.149 44.4767 109.235 44.7507C109.322 45.0281 109.443 45.2361 109.6 45.3748C109.757 45.5135 109.937 45.5862 110.144 45.5862C110.351 45.5862 110.538 45.5168 110.695 45.3748C110.852 45.2328 110.972 45.0281 111.059 44.7507C111.146 44.4767 111.189 44.1431 111.193 43.7502C111.193 43.3605 111.146 43.0303 111.059 42.7529C110.972 42.4789 110.852 42.2708 110.695 42.1288C110.538 41.9869 110.354 41.9175 110.144 41.9175C109.934 41.9175 109.753 41.9902 109.6 42.1288V42.1322ZM114.346 43.3572H115.535V44.2884H114.346V48.3335H113.21V40.3457H114.346V43.3572Z" fill="#8B8C8E"/>
<path d="M123.392 44.9059H116.023V44.0276H123.392V44.9059ZM120.61 41.5873C120.82 41.8647 121.134 42.1057 121.545 42.3105C121.956 42.5152 122.447 42.6473 123.018 42.7133L122.61 43.5917C121.936 43.5025 121.351 43.3242 120.853 43.0535C120.359 42.7827 119.975 42.4426 119.711 42.0397C119.447 42.4426 119.066 42.7794 118.569 43.0501C118.071 43.3209 117.486 43.5025 116.812 43.5917L116.384 42.7133C116.955 42.6506 117.446 42.5152 117.864 42.3105C118.281 42.1057 118.592 41.868 118.806 41.5873C119.02 41.3099 119.126 41.0259 119.13 40.7354V40.4712H120.292V40.7354C120.292 41.0259 120.399 41.3099 120.61 41.5873ZM121.201 45.6159C121.622 45.7282 121.942 45.89 122.169 46.1079C122.393 46.3259 122.507 46.5867 122.51 46.8971C122.51 47.2009 122.393 47.4618 122.169 47.6797C121.946 47.8977 121.622 48.0628 121.201 48.175C120.78 48.2906 120.279 48.3468 119.698 48.3468C119.116 48.3468 118.602 48.2906 118.178 48.175C117.754 48.0595 117.43 47.8944 117.203 47.6797C116.979 47.4618 116.865 47.2042 116.865 46.8971C116.865 46.59 116.979 46.3226 117.203 46.1079C117.426 45.89 117.75 45.7282 118.175 45.6159C118.599 45.5036 119.106 45.4508 119.698 45.4508C120.289 45.4508 120.783 45.5069 121.204 45.6159H121.201ZM118.432 46.4414C118.151 46.5405 118.014 46.6924 118.018 46.8971C118.018 47.1019 118.151 47.2538 118.432 47.3495C118.709 47.4453 119.13 47.4948 119.698 47.4948C120.265 47.4948 120.67 47.4453 120.95 47.3495C121.231 47.2538 121.374 47.1019 121.378 46.8971C121.368 46.4943 120.81 46.2928 119.701 46.2928C119.14 46.2928 118.719 46.3424 118.438 46.4414H118.432Z" fill="#8B8C8E"/>
<path d="M131.366 45.7149H128.206V48.3302H127.087V45.7149H123.971V44.8201H131.366V45.7149ZM130.477 43.9582H124.839V40.7386H130.477V43.9582ZM125.958 43.0799H129.348V41.6236H125.958V43.0799Z" fill="#8B8C8E"/>
<path d="M138.913 48.1981H132.894V45.8107H134.023V44.7474C133.472 44.7705 132.797 44.7837 131.999 44.7837L131.865 43.8988C132.907 43.8922 133.843 43.8756 134.674 43.8459C135.506 43.8162 136.298 43.7568 137.049 43.661L137.113 44.4601C136.498 44.5625 135.847 44.6384 135.159 44.688V46.2069H134.023V47.3032H138.916V48.1981H138.913ZM135.529 40.808C135.833 40.9268 136.074 41.0953 136.248 41.3132C136.421 41.5311 136.508 41.7821 136.508 42.0628C136.508 42.3435 136.421 42.5878 136.251 42.7992C136.081 43.0138 135.84 43.1789 135.533 43.2945C135.225 43.41 134.878 43.4662 134.491 43.4662C134.103 43.4662 133.742 43.41 133.435 43.2945C133.128 43.1789 132.887 43.0138 132.717 42.8025C132.547 42.5911 132.46 42.3435 132.46 42.0628C132.46 41.7821 132.543 41.5311 132.714 41.3132C132.884 41.0953 133.124 40.9268 133.432 40.808C133.742 40.6891 134.093 40.6297 134.491 40.633C134.878 40.633 135.225 40.6891 135.529 40.808ZM133.789 41.6104C133.615 41.7194 133.529 41.868 133.532 42.0628C133.532 42.2543 133.615 42.3996 133.786 42.5053C133.96 42.6109 134.193 42.6605 134.491 42.6605C134.768 42.6605 134.995 42.6076 135.169 42.502C135.342 42.3963 135.429 42.251 135.433 42.0628C135.433 41.8713 135.342 41.7194 135.169 41.6104C134.995 41.5014 134.771 41.4486 134.491 41.4486C134.197 41.4486 133.963 41.5014 133.789 41.6104ZM138.733 46.3886H137.597V45.7579H136.054V44.9951H137.597V40.3622H138.733V46.3919V46.3886Z" fill="#8B8C8E"/>
<path d="M142.819 41.2604C143.143 41.4915 143.394 41.8251 143.577 42.2543C143.761 42.6836 143.851 43.1855 143.855 43.7568C143.855 44.3314 143.758 44.8333 143.577 45.2659C143.397 45.6984 143.143 46.0287 142.822 46.2631C142.502 46.4976 142.134 46.6131 141.724 46.6131C141.313 46.6131 140.945 46.4976 140.621 46.2631C140.297 46.032 140.043 45.6984 139.863 45.2659C139.683 44.8333 139.592 44.3314 139.596 43.7568C139.596 43.1888 139.683 42.6902 139.863 42.2609C140.047 41.8317 140.297 41.4981 140.621 41.2637C140.945 41.0292 141.313 40.9137 141.724 40.9137C142.134 40.9137 142.498 41.0292 142.819 41.2637V41.2604ZM141.176 42.1322C141.019 42.2741 140.898 42.4822 140.812 42.7563C140.725 43.0303 140.681 43.3638 140.681 43.7535C140.681 44.1431 140.725 44.4767 140.812 44.7507C140.898 45.0281 141.019 45.2361 141.176 45.3748C141.333 45.5135 141.513 45.5862 141.72 45.5862C141.927 45.5862 142.114 45.5168 142.271 45.3748C142.428 45.2328 142.549 45.0281 142.635 44.7507C142.722 44.4767 142.766 44.1431 142.769 43.7502C142.769 43.3605 142.722 43.0303 142.635 42.7529C142.549 42.4789 142.428 42.2708 142.271 42.1288C142.114 41.9869 141.931 41.9175 141.72 41.9175C141.51 41.9175 141.329 41.9902 141.176 42.1288V42.1322ZM145.922 43.3572H147.111V44.2884H145.922V48.3335H144.786V40.3457H145.922V43.3572Z" fill="#8B8C8E"/>
<path d="M151.492 43.5289C151.295 44.2356 150.931 44.8894 150.404 45.5003C149.872 46.1079 149.128 46.6527 148.162 47.1283L147.541 46.2862C148.202 45.9626 148.747 45.6126 149.168 45.2361C149.589 44.8597 149.916 44.4469 150.15 43.9978L147.761 44.2158L147.618 43.2582L150.49 43.0865C150.577 42.7397 150.634 42.3831 150.657 42.01H148.042V41.1151H151.79C151.79 42.0199 151.686 42.8223 151.489 43.5289H151.492ZM153.951 43.4134H155.097V44.3347H153.951V48.3203H152.815V40.3523H153.951V43.4167V43.4134Z" fill="#8B8C8E"/>
<path d="M158.814 42.1488H156.834V45.6292C157.291 45.6226 157.695 45.6061 158.043 45.5764C158.39 45.5467 158.744 45.4971 159.105 45.4245L159.195 46.3359C158.764 46.425 158.33 46.4812 157.896 46.5109C157.462 46.5406 156.924 46.5538 156.282 46.5538H155.725V41.2539H158.814V42.1488ZM160.768 47.977H159.713V44.1763H158.266V43.2649H159.713V40.4911H160.768V47.977ZM162.482 48.337H161.39V40.3491H162.482V48.337Z" fill="#8B8C8E"/>
<path d="M167.551 46.4315H163.646V41.0689H167.551V46.4315ZM164.782 45.5465H166.452V41.9472H164.782V45.5465ZM170.01 48.3566H168.864V40.3523H170.01V48.3566Z" fill="#8B8C8E"/>
<path d="M97.342 28.8444V36.8653H93.1367V20.7773H97.342V28.2897L102.873 20.7773H107.359L101.671 28.3227L107.707 36.8686H102.92L97.3454 28.8477L97.342 28.8444Z" fill="#2961B2"/>
<path d="M106.959 28.8213C106.959 23.8417 110.399 20.4207 115.423 20.4207C120.447 20.4207 123.887 23.8417 123.887 28.8213C123.887 33.8009 120.447 37.2219 115.423 37.2219C110.399 37.2219 106.959 33.8009 106.959 28.8213ZM115.423 33.7876C117.908 33.7876 119.605 31.7667 119.605 28.8213C119.605 25.8758 117.908 23.8549 115.423 23.8549C112.938 23.8549 111.241 25.8758 111.241 28.8213C111.241 31.7667 112.938 33.7876 115.423 33.7876Z" fill="#2961B2"/>
<path d="M125.66 20.7773H132.931C136.482 20.7773 138.92 22.9105 138.92 26.0112C138.92 28.1213 137.774 29.7987 135.897 30.6441L140.293 36.8653H135.256L131.425 31.2418H129.862V36.8653H125.656V20.7773H125.66ZM132.213 28.2666C133.673 28.2666 134.675 27.3453 134.675 26.0112C134.675 24.6772 133.676 23.7559 132.213 23.7559H129.865V28.2666H132.213Z" fill="#2961B2"/>
<path d="M141.426 20.7773H152.565V24.1125H145.631V27.2462H151.263V30.3007H145.631V33.5334H152.565V36.8686H141.426V20.7773Z" fill="#2961B2"/>
<path d="M158.761 20.7773H164.212L169.517 36.8686H165.101L164.146 33.3915H158.828L157.873 36.8686H153.457L158.761 20.7773ZM163.314 30.3898L161.494 23.746L159.663 30.3898H163.317H163.314Z" fill="#2961B2"/>
<defs>
<linearGradient id="paint0_linear_5724_2840" x1="6.33109" y1="53.1054" x2="81.7151" y2="25.3504" gradientUnits="userSpaceOnUse">
<stop stop-color="#2595D1"/>
<stop offset="1" stop-color="#25368B"/>
</linearGradient>
</defs>
</svg>
